<?xml version="1.0" encoding="UTF-8" standalone="no"?>
<svg
   xmlns:dc="http://purl.org/dc/elements/1.1/"
   xmlns:cc="http://creativecommons.org/ns#"
   xmlns:rdf="http://www.w3.org/1999/02/22-rdf-syntax-ns#"
   xmlns:svg="http://www.w3.org/2000/svg"
   xmlns="http://www.w3.org/2000/svg"
   viewBox="0 0 456.72 131.46667"
   height="131.46667"
   width="456.72"
   xml:space="preserve"
   id="svg2"
   version="1.1"><metadata
     id="metadata8"><rdf:RDF><cc:Work
         rdf:about=""><dc:format>image/svg+xml</dc:format><dc:type
           rdf:resource="http://purl.org/dc/dcmitype/StillImage" /></cc:Work></rdf:RDF></metadata><defs
     id="defs6" /><g
     transform="matrix(1.3333333,0,0,-1.3333333,0,131.46667)"
     id="g10"><g
       transform="scale(0.1)"
       id="g12"><path
         id="path14"
         style="fill:#f79330;fill-opacity:1;fill-rule:nonzero;stroke:none"
         d="M 147.664,629.16 V 508.492 h 83.488 L 406.023,219.926 v 288.566 h 173.95 V 219.926 l 174.871,288.566 h 83.484 V 629.16 H 601.672 v 344.664 c -34.984,7.875 -71.317,12.168 -108.676,12.168 -37.355,0 -73.687,-4.293 -108.672,-12.168 V 629.16 h -236.66" /><path
         id="path16"
         style="fill:#f79330;fill-opacity:1;fill-rule:nonzero;stroke:none"
         d="M 637.668,964.375 V 665.156 H 874.324 V 472.496 H 775.117 L 543.977,91.0586 V 472.496 H 442.02 V 91.0586 L 210.879,472.496 h -99.207 v 192.66 H 348.328 V 964.375 C 146.66,902.555 0,714.922 0,492.992 0,220.723 220.723,0 492.996,0 765.27,0 985.992,220.723 985.992,492.992 c 0,221.93 -146.656,409.563 -348.324,471.383" /><path
         id="path18"
         style="fill:#232325;fill-opacity:1;fill-rule:nonzero;stroke:none"
         d="m 1235.55,754.953 87.02,0.469 0.47,-87.801 44.77,0.215 -1.05,203.16 -44.81,-0.23 0.41,-75.754 -87.02,-0.446 -0.41,75.739 -44.78,-0.242 1.06,-203.149 44.81,0.238 -0.47,87.801" /><path
         id="path20"
         style="fill:#232325;fill-opacity:1;fill-rule:nonzero;stroke:none"
         d="m 1476.34,667.051 44.77,0.246 -0.44,86.644 75.77,116.891 -53.13,-0.254 -45.25,-76.285 -43.49,75.816 -55.7,-0.3 77.02,-116.094 0.45,-86.664" /><path
         id="path22"
         style="fill:#232325;fill-opacity:1;fill-rule:nonzero;stroke:none"
         d="m 1695.75,832.797 c 4.21,0.035 8.62,-0.188 13.22,-0.633 4.6,-0.449 8.79,-1.547 12.5,-3.219 3.75,-1.715 6.82,-4.129 9.25,-7.285 2.4,-3.144 3.61,-7.312 3.65,-12.461 0,-4.785 -0.86,-8.754 -2.67,-11.914 -1.81,-3.168 -4.17,-5.66 -7.13,-7.5 -2.98,-1.832 -6.31,-3.168 -10.03,-3.93 -3.75,-0.785 -7.6,-1.195 -11.64,-1.207 l -29.85,-0.156 -0.27,48.196 z m -22.1,-165.379 -0.42,79.199 32.75,0.164 c 10.72,0.059 20.65,1.121 29.85,3.192 9.18,2.043 17.09,5.468 23.79,10.281 6.67,4.844 11.89,11.269 15.69,19.309 3.77,8.074 5.65,18.015 5.59,29.89 -0.08,12.047 -2.18,22.047 -6.35,29.957 -4.16,7.906 -9.75,14.176 -16.74,18.852 -7.03,4.64 -15.24,7.89 -24.63,9.75 -9.37,1.883 -19.34,2.773 -29.86,2.715 l -75.54,-0.391 1.09,-203.145 44.78,0.227" /><path
         id="path24"
         style="fill:#232325;fill-opacity:1;fill-rule:nonzero;stroke:none"
         d="m 1956.3,667.746 -0.21,41.297 -98.5,-0.492 -0.23,41.32 88.18,0.465 -0.22,41.324 -88.15,-0.465 -0.22,37.864 93.33,0.496 -0.21,41.324 -138.12,-0.723 1.06,-203.148 143.29,0.738" /><path
         id="path26"
         style="fill:#232325;fill-opacity:1;fill-rule:nonzero;stroke:none"
         d="m 2032.58,786.504 -0.25,46.184 29.3,0.144 c 4.02,0.039 8.14,-0.223 12.34,-0.781 4.2,-0.555 7.97,-1.617 11.23,-3.242 3.26,-1.621 5.95,-3.946 8.06,-6.996 2.12,-3.032 3.19,-7.149 3.23,-12.325 0.02,-5.547 -1.15,-9.843 -3.51,-12.914 -2.38,-3.074 -5.38,-5.347 -9.02,-6.793 -3.63,-1.468 -7.68,-2.324 -12.18,-2.648 -4.49,-0.313 -8.77,-0.481 -12.78,-0.496 z m 65.21,-118.754 53.71,0.277 -52.15,85.532 c 14.37,2.754 25.25,9.152 32.63,19.246 7.42,10.105 11.11,22.312 11.03,36.668 -0.07,11.836 -2.18,21.722 -6.35,29.652 -4.14,7.906 -9.73,14.199 -16.73,18.855 -7.04,4.637 -15.17,7.95 -24.47,9.903 -9.27,1.972 -19.1,2.918 -29.43,2.863 l -78.68,-0.43 1.04,-203.144 44.79,0.242 -0.43,81.203 22.14,0.117 42.9,-80.984" /><path
         id="path28"
         style="fill:#232325;fill-opacity:1;fill-rule:nonzero;stroke:none"
         d="m 2310.33,668.043 -0.23,41.324 -83,-0.437 -0.85,161.832 -44.79,-0.223 1.07,-203.152 127.8,0.656" /><path
         id="path30"
         style="fill:#232325;fill-opacity:1;fill-rule:nonzero;stroke:none"
         d="m 2485.74,667.883 -0.21,41.297 -98.51,-0.496 -0.22,41.32 88.18,0.469 -0.22,41.3 -88.16,-0.445 -0.2,37.863 93.32,0.497 -0.22,41.324 -138.11,-0.723 1.06,-203.148 143.29,0.742" /><path
         id="path32"
         style="fill:#232325;fill-opacity:1;fill-rule:nonzero;stroke:none"
         d="m 2585.71,708.871 -23.26,-0.129 -0.64,120.52 26.41,0.148 c 9.39,0.039 18.36,-1.094 26.89,-3.461 8.49,-2.328 15.96,-5.875 22.29,-10.625 6.35,-4.765 11.41,-10.793 15.17,-18.144 3.78,-7.356 5.69,-16.008 5.75,-25.953 0.06,-11.485 -1.77,-21.204 -5.45,-29.145 -3.69,-7.969 -8.79,-14.41 -15.27,-19.305 -6.47,-4.914 -14.16,-8.437 -23.06,-10.613 -8.88,-2.141 -18.5,-3.238 -28.83,-3.293 z m 85.08,-14.891 c 10.48,8.543 18.8,19.118 24.95,31.684 6.16,12.539 9.19,27.063 9.1,43.516 -0.07,18.558 -3.38,34.308 -9.85,47.3 -6.49,12.993 -15.2,23.493 -26.16,31.567 -10.95,8.062 -23.78,13.902 -38.44,17.461 -14.65,3.539 -30.15,5.285 -46.41,5.187 l -67.19,-0.347 1.08,-203.149 73.22,0.391 c 15.11,0.066 29.55,2.344 43.33,6.828 13.76,4.469 25.88,10.984 36.37,19.562" /><path
         id="path34"
         style="fill:#232325;fill-opacity:1;fill-rule:nonzero;stroke:none"
         d="m 2851.25,787.922 0.2,-41.324 36.47,0.191 0.18,-33.008 c -4.2,-2.324 -9.85,-4.601 -16.9,-6.832 -7.08,-2.238 -15.49,-3.371 -25.26,-3.422 -9.56,-0.039 -18.25,1.524 -26.02,4.731 -7.75,3.219 -14.45,7.722 -20.04,13.543 -5.57,5.789 -9.85,12.656 -12.87,20.586 -3.02,7.918 -4.52,16.648 -4.59,26.23 -0.05,9.363 1.39,18.078 4.31,26.113 2.94,8.063 7.15,15.028 12.65,20.907 5.55,5.859 12.17,10.402 19.91,13.718 7.74,3.293 16.39,4.973 25.96,5.012 11.49,0.067 21.08,-1.512 28.74,-4.719 7.67,-3.21 14.59,-7.964 20.76,-14.253 l 31.39,34.601 c -10.38,9.516 -22.44,16.192 -36.14,20.055 -13.7,3.851 -28.7,5.726 -44.97,5.633 -15.9,-0.075 -30.53,-2.641 -43.87,-7.704 -13.41,-5.027 -24.94,-12.207 -34.65,-21.539 -9.73,-9.347 -17.26,-20.625 -22.67,-33.839 -5.37,-13.235 -8.04,-27.961 -7.94,-44.223 0.09,-16.27 2.89,-30.977 8.41,-44.176 5.53,-13.164 13.19,-24.359 23.03,-33.578 9.81,-9.238 21.42,-16.289 34.84,-21.207 13.43,-4.891 28.09,-7.289 43.98,-7.215 14.93,0.078 29.56,1.668 43.91,4.824 14.33,3.125 28.09,8.184 41.27,15.145 l -0.56,106.18 -79.53,-0.43" /><path
         id="path36"
         style="fill:#232325;fill-opacity:1;fill-rule:nonzero;stroke:none"
         d="m 3106.74,672.578 -0.23,41.301 -98.47,-0.524 -0.23,41.336 88.17,0.469 -0.22,41.309 -88.17,-0.453 -0.2,37.863 93.32,0.508 -0.2,41.297 -138.12,-0.723 1.07,-203.145 143.28,0.762" /><path
         id="path38"
         style="fill:#232325;fill-opacity:1;fill-rule:nonzero;stroke:none"
         d="m 3212.05,837.633 c 4.04,0.015 8.14,-0.227 12.36,-0.801 4.19,-0.547 7.95,-1.617 11.21,-3.246 3.29,-1.617 5.97,-3.941 8.1,-6.992 2.1,-3.039 3.18,-7.156 3.22,-12.324 0.01,-5.555 -1.16,-9.844 -3.54,-12.922 -2.38,-3.071 -5.38,-5.34 -9.01,-6.774 -3.63,-1.488 -7.69,-2.344 -12.17,-2.66 -4.51,-0.297 -8.77,-0.484 -12.78,-0.484 l -26.42,-0.145 -0.24,46.176 z m -28.43,-165.442 -0.42,81.207 22.11,0.118 42.93,-80.977 53.7,0.285 -52.14,85.516 c 14.36,2.769 25.24,9.172 32.65,19.238 7.39,10.11 11.08,22.32 11.01,36.676 -0.08,11.832 -2.19,21.738 -6.33,29.648 -4.17,7.93 -9.74,14.219 -16.76,18.856 -7.02,4.637 -15.16,7.949 -24.46,9.902 -9.3,1.992 -19.11,2.918 -29.44,2.863 l -78.68,-0.41 1.06,-203.14 44.77,0.218" /><path
         id="path40"
         style="fill:#9c9a9b;fill-opacity:1;fill-rule:nonzero;stroke:none"
         d="m 1481.96,425.551 c -11.74,15.254 -26.6,26.988 -44.59,35.203 -17.99,8.211 -36.58,12.316 -55.74,12.316 -23.46,0 -44.69,-4.398 -63.65,-13.199 -18.97,-8.797 -35.2,-20.828 -48.69,-36.078 -13.5,-15.254 -23.97,-33.148 -31.39,-53.68 -7.43,-20.539 -11.14,-42.535 -11.14,-66 0,-21.91 3.51,-42.636 10.55,-62.187 7.05,-19.567 17.21,-36.77 30.51,-51.633 13.29,-14.867 29.53,-26.602 48.69,-35.199 19.16,-8.61 40.87,-12.906 65.12,-12.906 23.86,0 44.79,4.886 62.78,14.667 17.98,9.77 33.24,23.469 45.76,41.067 l 47.53,-35.789 c -3.14,-4.305 -8.61,-10.469 -16.44,-18.481 -7.82,-8.015 -18.18,-16.039 -31.09,-24.05 -12.9,-8.024 -28.45,-15.059 -46.64,-21.1215 -18.19,-6.0586 -39.21,-9.0938 -63.07,-9.0938 -32.85,0 -62.48,6.2617 -88.88,18.7733 -26.39,12.516 -48.89,28.942 -67.47,49.281 -18.57,20.332 -32.75,43.313 -42.53,68.938 -9.77,25.609 -14.67,51.523 -14.67,77.734 0,32.063 5.29,61.688 15.84,88.879 10.56,27.18 25.33,50.645 44.3,70.403 18.97,19.746 41.75,35.097 68.35,46.054 26.58,10.942 55.92,16.426 88,16.426 27.37,0 54.27,-5.285 80.67,-15.84 26.4,-10.562 48.01,-26.797 64.83,-48.695 l -46.94,-35.789" /><path
         id="path42"
         style="fill:#9c9a9b;fill-opacity:1;fill-rule:nonzero;stroke:none"
         d="m 1837.01,251.895 -77.44,190.668 h -1.17 L 1679.79,251.895 Z M 1736.1,515.313 h 51.05 L 1964.91,99.9453 H 1899.2 L 1857.55,202.613 H 1659.83 L 1618.77,99.9453 h -65.71 L 1736.1,515.313" /><path
         id="path44"
         style="fill:#9c9a9b;fill-opacity:1;fill-rule:nonzero;stroke:none"
         d="m 2010.44,515.313 h 56.31 V 152.75 h 190.68 V 99.9453 H 2010.44 V 515.313" /><path
         id="path46"
         style="fill:#9c9a9b;fill-opacity:1;fill-rule:nonzero;stroke:none"
         d="m 2304.54,515.313 h 56.31 V 99.9453 h -56.31 V 515.313" /><path
         id="path48"
         style="fill:#9c9a9b;fill-opacity:1;fill-rule:nonzero;stroke:none"
         d="m 2511.81,332.27 h 73.92 c 10.94,0 21.8,0.878 32.56,2.644 10.74,1.758 20.33,4.984 28.75,9.676 8.4,4.691 15.14,11.441 20.24,20.238 5.07,8.805 7.61,20.246 7.61,34.324 0,14.082 -2.54,25.52 -7.61,34.321 -5.1,8.797 -11.84,15.547 -20.24,20.238 -8.42,4.691 -18.01,7.922 -28.75,9.684 -10.76,1.757 -21.62,2.636 -32.56,2.636 h -73.92 z m -56.33,183.043 h 146.09 c 26.58,0 48.48,-3.618 65.71,-10.856 17.2,-7.238 30.8,-16.426 40.76,-27.57 9.98,-11.149 16.91,-23.668 20.84,-37.547 3.9,-13.891 5.86,-27.285 5.86,-40.188 0,-12.906 -1.96,-26.308 -5.86,-40.187 -3.93,-13.887 -10.86,-26.402 -20.84,-37.547 -9.96,-11.148 -23.56,-20.344 -40.76,-27.574 -17.23,-7.242 -39.13,-10.856 -65.71,-10.856 h -89.76 V 99.9453 h -56.33 V 515.313" /><path
         id="path50"
         style="fill:#9c9a9b;fill-opacity:1;fill-rule:nonzero;stroke:none"
         d="m 2787.35,515.313 h 268.11 V 462.516 H 2843.68 V 338.727 h 197.13 V 285.922 H 2843.68 V 152.75 h 222.35 V 99.9453 H 2787.35 V 515.313" /><path
         id="path52"
         style="fill:#9c9a9b;fill-opacity:1;fill-rule:nonzero;stroke:none"
         d="m 3186.65,332.27 h 73.93 c 10.93,0 21.79,0.878 32.55,2.644 10.75,1.758 20.34,4.984 28.75,9.676 8.4,4.691 15.14,11.441 20.24,20.238 5.08,8.805 7.62,20.246 7.62,34.324 0,14.082 -2.54,25.52 -7.62,34.321 -5.1,8.797 -11.84,15.547 -20.24,20.238 -8.41,4.691 -18,7.922 -28.75,9.684 -10.76,1.757 -21.62,2.636 -32.55,2.636 h -73.93 z m -56.33,183.043 h 146.1 c 26.58,0 48.47,-3.618 65.7,-10.856 17.21,-7.238 30.8,-16.426 40.76,-27.57 9.98,-11.149 16.91,-23.668 20.84,-37.547 3.91,-13.891 5.86,-27.285 5.86,-40.188 0,-13.3 -2.34,-26.109 -7.03,-38.429 -4.71,-12.321 -11.45,-23.465 -20.26,-33.438 -8.78,-9.976 -19.55,-18.387 -32.26,-25.23 -12.72,-6.844 -26.9,-11.055 -42.52,-12.61 L 3425.42,99.9453 h -70.39 L 3249.42,282.988 h -62.77 V 99.9453 h -56.33 V 515.313" /></g></g></svg>