<?xml version="1.0" encoding="utf-8"?>
<svg viewBox="0 0.401 256 256" width="256" height="256" xmlns="http://www.w3.org/2000/svg">
  <rect width="256" height="256" style="fill: none;"/>
  <path d="M 165.561 83.7 L 227.007 83.7 L 227.007 133.721 L 201.248 133.721 L 141.236 232.756 L 141.236 133.721 L 114.764 133.721 L 114.764 232.756 L 54.752 133.721 L 28.993 133.721 L 28.993 83.7 L 90.439 83.7 L 90 0 L 99.8 0 L 99.785 93.047 L 38.34 93.047 L 38.34 124.377 L 60.015 124.377 L 105.417 199.297 L 105.417 124.377 L 150.58 124.377 L 150.58 199.297 L 195.983 124.377 L 217.66 124.377 L 217.66 93.047 L 156.215 93.047 C 156.215 93.047 156.212 0.016 156.2 0 L 165.6 0 Z M 156.2 0 C 156.2 0 156.2 0 156.2 0 Z" style="fill: rgb(133, 133, 133);"/>
</svg>