<?xml version="1.0" encoding="utf-8"?>
<!-- Generator: Adobe Illustrator 23.0.1, SVG Export Plug-In . SVG Version: 6.00 Build 0)  -->
<svg version="1.1" id="Layer_1" xmlns="http://www.w3.org/2000/svg" xmlns:xlink="http://www.w3.org/1999/xlink" x="0px" y="0px"
	 viewBox="0 0 32 32" style="enable-background:new 0 0 32 32;" xml:space="preserve">
<style type="text/css">
	.st0{fill:#C5C5C5;}
</style>
<path class="st0" d="M25,18c0,5.5-4.5,10-10,10C9.5,28,5,23.5,5,18C5,12.5,9.5,8,15,8c0,0,0,0,0,0h6.2l-3.6,3.6L19,13l6-6l-6-6
	l-1.4,1.4L21.2,6H15C8.4,6,3,11.4,3,18s5.4,12,12,12s12-5.4,12-12l0,0L25,18z"/>
</svg>
