<svg id="Layer_1" data-name="Layer 1" xmlns="http://www.w3.org/2000/svg" viewBox="0 0 11.43 16"><defs><style>.cls-1{fill:#171717;}</style></defs><title>document_light</title><path class="cls-1" d="M13.54,4.17l-4-4A.54.54,0,0,0,9.14,0H3.43A1.14,1.14,0,0,0,2.29,1.14V14.86A1.14,1.14,0,0,0,3.43,16h9.14a1.14,1.14,0,0,0,1.14-1.14V4.57A.48.48,0,0,0,13.54,4.17Zm-4.4-2.8,3.2,3.2H9.14Zm3.43,13.49H3.43V1.14H8V4.57A1.14,1.14,0,0,0,9.14,5.71h3.43Z" transform="translate(-2.29)"/><path class="cls-1" d="M5.14,11.43h5.72v1.14H5.14ZM5.14,8h5.72V9.14H5.14Z" transform="translate(-2.29)"/></svg>